PathFileType	4	(X/Y/Z)	C:\Users\WrightLab\Desktop\Jo\P1_boxCal3.trc
DataRate	CameraRate	NumFrames	NumMarkers	Units	OrigDataRate	OrigDataStartFrame	OrigNumFrames
100.00	100.00	       18	19	mm	100.00	481	       960
Frame#	Time	Headset_Front			Headset_Back			Headset_Left			Headset_Right			Left_Shoulder			Right_Shoulder			Sternum			C7			Left Elbow			Right Elbow			Left Wrist			Right Wrist			Left ASIS			Right ASIS			S2			Left Knee			Right Knee			Left Ankle			Right Ankle			
		X1	Y1	Z1	X2	Y2	Z2	X3	Y3	Z3	X4	Y4	Z4	X5	Y5	Z5	X6	Y6	Z6	X7	Y7	Z7	X8	Y8	Z8	X9	Y9	Z9	X10	Y10	Z10	X11	Y11	Z11	X12	Y12	Z12	X13	Y13	Z13	X14	Y14	Z14	X15	Y15	Z15	X16	Y16	Z16	X17	Y17	Z17	X18	Y18	Z18	X19	Y19	Z19	

481	4.800	-200.43745	1408.08777	986.91760	-208.74167	1522.60376	701.84033	-94.84362	1468.22522	818.61664	-309.16638	1433.16028	885.78760	-12.91865	1292.86206	715.05981	-375.00970	1276.80396	816.87134	-172.08488	1180.89722	898.11694	-213.61414	1283.26038	650.36462	81.78433	977.53937	683.91040	-472.29669	1011.21539	763.33453	185.53770	810.20123	768.14130	-552.41400	788.89777	827.34045	-55.73658	901.75964	870.94171	-246.69736	896.97430	933.21625	-244.12320	902.50952	605.09882	-37.06464	459.55487	650.47748	-271.85394	482.11401	937.78503	-121.13358	116.26714	522.15027	-197.30714	136.72130	1043.53699	
482	4.810	-199.11652	1408.07471	995.70703	-207.07132	1521.72083	710.28864	-93.18232	1467.44250	826.96069	-307.30408	1432.96729	894.21375	-11.93567	1291.79224	724.33160	-373.75668	1275.65906	825.70874	-171.67763	1180.96924	909.14600	-211.70081	1281.50500	659.39063	81.78638	975.90131	693.24048	-470.52237	1009.60077	770.92554	185.63962	808.68219	777.56665	-549.74084	786.91748	834.78345	-53.60728	900.80432	881.61475	-244.19048	895.75934	943.35443	-241.29439	901.77228	614.61145	-34.90998	459.99060	656.87708	-268.45221	481.98169	948.62671	-121.27975	118.79289	523.79248	-195.14467	131.56595	1046.34900	
483	4.820	-197.43304	1407.91357	1004.40485	-205.41319	1520.79150	718.33630	-91.70081	1466.23279	835.58435	-306.06757	1433.01843	903.32941	-9.76976	1291.53833	733.83685	-372.44666	1274.79272	834.41113	-169.99088	1180.76819	918.49280	-210.71230	1280.60718	668.74786	81.89138	974.47009	703.75598	-468.12173	1008.57806	780.58496	185.96138	807.12122	785.79749	-547.46661	786.30273	841.59967	-50.40279	901.67401	893.00128	-241.79396	895.29089	953.02777	-238.06018	900.43207	624.43732	-32.21054	460.37439	665.18665	-264.41663	480.61407	959.46106	-120.51316	121.34593	524.98596	-193.07841	125.93337	1048.26550	
484	4.830	-196.57039	1408.75903	1013.14117	-204.20172	1519.55164	726.62238	-90.51892	1466.13879	842.37433	-304.23029	1433.01990	911.65118	-9.31649	1291.20605	742.79272	-371.38461	1273.88684	843.01477	-167.84076	1179.98376	927.10730	-209.26717	1279.56970	677.67242	81.76391	973.60767	715.05511	-465.60922	1007.65265	789.84857	185.09908	805.39362	794.77441	-546.38629	785.54010	849.67462	-48.01807	900.79077	902.11792	-239.45605	894.65723	964.06982	-233.79535	898.62671	635.29156	-30.13850	461.25342	673.02325	-260.50867	479.12900	971.27509	-119.44263	124.73024	526.06653	-192.31076	121.94685	1050.70825	
485	4.840	-195.44115	1409.09546	1021.99023	-202.94746	1518.87671	734.84235	-89.07131	1465.73193	851.54144	-303.48859	1433.28674	920.53784	-7.67142	1290.40637	752.15369	-370.45648	1273.40601	852.08203	-167.52301	1180.91248	937.61432	-207.72856	1277.99951	687.44611	80.84064	972.82410	723.31677	-463.24527	1005.88068	798.47076	184.60205	803.84619	802.70221	-543.53430	784.48126	856.60577	-45.81447	901.32947	913.07104	-237.16591	895.14923	974.32147	-230.18735	897.69446	645.54993	-27.71413	460.98026	682.61304	-256.94229	477.95047	981.99109	-117.86190	129.25333	528.13837	-192.25661	119.49670	1054.30212	
486	4.850	-194.13446	1409.97070	1030.72046	-201.90694	1518.41748	742.99121	-87.86621	1465.40283	860.49268	-302.50577	1433.82849	929.63312	-6.72261	1290.02454	761.26587	-369.85562	1272.53259	861.10498	-167.33846	1181.95386	948.10822	-206.53824	1277.10266	697.16919	80.56139	972.27869	734.89520	-460.86172	1004.42889	807.19055	184.07907	803.15125	810.23779	-540.38300	782.38007	864.63525	-43.78000	901.87488	925.18781	-234.84087	895.51874	984.87042	-226.39561	896.77460	656.16748	-24.46474	461.45334	692.36322	-253.92429	476.06750	992.44067	-115.82079	133.39159	529.71808	-191.98289	118.16254	1059.57544	
487	4.860	-192.18071	1410.68372	1039.33325	-201.12767	1518.26648	751.33362	-87.02206	1465.51465	868.20703	-301.04340	1434.21655	938.17151	-6.22586	1289.86707	770.69659	-368.98199	1272.18579	869.82587	-165.35619	1182.03906	957.45398	-205.93942	1276.35767	705.75873	79.27586	971.56256	744.47784	-458.15448	1003.61725	815.87915	182.89189	801.71655	818.12579	-538.49591	781.29407	872.24884	-41.66203	902.73352	935.99011	-232.46893	896.01642	995.94928	-222.63451	896.08313	667.90417	-20.47265	461.58237	702.96478	-251.49501	474.46817	1002.84210	-113.11832	137.54582	534.44763	-191.49948	116.68002	1066.34912	
488	4.870	-191.00404	1412.03479	1048.05408	-200.65460	1518.73792	760.05194	-86.16570	1466.50549	876.14868	-299.94293	1435.42163	947.18439	-5.29282	1290.03418	779.41150	-368.27289	1271.78528	879.19519	-163.99490	1183.09351	967.15259	-204.73119	1275.70801	714.78125	78.34019	970.82239	754.69666	-456.24631	1003.04724	824.51862	181.76280	800.13116	825.35132	-536.11438	780.70050	881.26837	-39.01312	904.63409	947.64587	-230.35484	897.06287	1006.93811	-219.86642	895.85901	678.56335	-15.56573	461.65750	715.04468	-249.33354	473.31091	1012.30237	-108.70603	142.63916	538.35748	-191.86447	114.62528	1072.69031	
489	4.880	-189.27092	1413.61316	1056.49390	-200.02631	1519.45264	768.43536	-85.35043	1467.35986	884.16577	-298.95413	1436.76782	955.92810	-3.48245	1290.79309	788.21643	-367.53021	1271.81836	887.86377	-164.82188	1185.75354	977.56421	-203.96416	1275.26416	724.84552	77.18504	970.28168	765.31635	-454.91260	1002.91559	832.46204	180.48587	798.76959	833.46588	-533.63000	779.64587	888.92261	-37.28325	906.16748	959.09912	-227.98390	898.17401	1017.87817	-217.93306	895.86438	690.47223	-9.17325	462.04083	728.65045	-247.28731	471.53397	1021.25067	-104.43127	148.01266	544.08514	-191.22520	113.63921	1080.11072	
490	4.890	-188.92531	1415.49292	1065.41760	-197.91295	1518.76697	776.36926	-84.40042	1468.33167	893.46497	-298.05151	1438.32678	964.90869	-2.83272	1291.12427	797.35065	-366.47400	1271.98828	896.95319	-162.29872	1186.22754	987.73688	-203.13286	1275.90710	733.84308	76.04714	970.34515	775.24335	-451.55899	1001.30859	842.03040	179.46297	798.73486	839.33655	-530.61377	779.47314	897.50555	-35.75070	907.46625	970.79254	-225.56799	899.30975	1029.69983	-216.35951	896.71814	700.90735	-2.57701	462.47144	742.36261	-246.40495	471.75620	1031.04834	-98.84863	154.07962	550.77771	-192.00452	111.16320	1086.28442	
491	4.900	-187.56714	1417.35657	1074.12439	-198.61713	1520.56531	784.71021	-83.45156	1469.38159	902.21802	-296.75366	1439.83032	973.79907	-2.10219	1292.26868	807.58490	-365.55945	1272.12573	906.15918	-160.77257	1188.18225	997.31995	-201.75342	1275.59265	743.61041	75.35963	970.60394	785.78693	-449.56824	1001.70111	851.90918	176.13095	798.27478	846.85828	-527.34839	778.96838	906.92084	-33.32466	909.97314	981.76337	-223.89726	901.30145	1041.27075	-215.44753	896.80597	711.28302	5.22163	461.98840	759.35614	-245.33173	471.86948	1039.48645	-91.72899	160.34538	559.13513	-192.81860	110.01986	1092.87756	
492	4.910	-186.21890	1419.46411	1082.88379	-198.05406	1521.16516	793.07404	-82.74459	1470.66748	909.98242	-295.86145	1441.02515	982.21936	-0.38940	1293.83911	816.72943	-364.66312	1272.86060	915.58600	-160.68137	1190.93494	1008.05902	-201.29843	1276.35364	752.98309	73.51135	971.24902	795.51337	-446.70920	1001.04785	861.41907	173.88748	797.07733	853.27087	-524.01410	778.94769	916.25708	-31.96154	911.91290	992.88623	-222.01865	902.89893	1052.55615	-214.50214	897.36163	722.25604	14.45351	461.59586	776.56195	-244.33206	473.00891	1048.38953	-84.83456	166.63943	569.53644	-192.92619	107.54416	1098.42529	
493	4.920	-185.13402	1421.47058	1091.57312	-197.48126	1521.11743	801.20697	-81.90933	1471.83398	918.74371	-295.44055	1442.47375	991.30768	0.37492	1294.49963	825.53888	-363.74911	1273.48279	924.85559	-159.83615	1192.66797	1016.86578	-200.30505	1277.32458	761.40497	72.19505	972.30347	804.25104	-443.64771	1001.19769	872.14459	171.97997	797.46765	860.66486	-521.50598	778.88477	925.63519	-31.14004	914.59131	1003.47302	-220.26108	904.87927	1063.81091	-213.53435	897.86035	732.12384	23.68040	461.24817	794.31042	-243.75845	474.59000	1057.11365	-78.25605	173.92551	579.52325	-192.10936	105.29410	1102.07385	
494	4.930	-184.99675	1423.58997	1100.54041	-196.87077	1521.77246	809.52936	-81.20214	1473.18030	927.84869	-294.49033	1443.71362	1000.33081	1.98344	1296.10876	834.49695	-362.29156	1274.60242	933.80243	-158.22035	1193.91113	1026.33923	-198.74194	1278.19141	771.53772	71.47467	974.03851	812.70050	-442.82281	1002.82733	880.74921	170.12630	797.28918	867.15387	-519.20868	779.41803	935.25604	-30.19150	916.59369	1015.32117	-219.29637	907.18964	1074.35132	-211.87245	898.58209	742.74377	33.49450	461.74329	813.90472	-242.93256	477.00650	1065.04150	-71.15038	181.41908	591.89935	-190.89185	103.40012	1103.98340	
495	4.940	-183.64877	1425.30225	1109.04187	-196.15079	1522.27039	817.89325	-80.16322	1474.38623	935.54352	-293.52295	1444.62878	1008.51770	3.36012	1297.41162	843.76404	-360.73898	1275.61963	943.17816	-156.34972	1195.15051	1035.33777	-197.11659	1279.35706	780.08411	70.79503	974.92322	822.67841	-440.39951	1003.63281	890.89093	168.52602	797.51288	874.40088	-516.00043	780.17871	945.54547	-29.48212	918.40930	1024.34961	-218.50182	909.35083	1085.77722	-211.93506	899.35242	752.39783	43.86271	461.75696	833.55908	-242.06596	478.58435	1072.85046	-63.43257	188.95781	605.20587	-189.38513	102.14593	1104.39990	
496	4.950	-182.53166	1427.08057	1117.68274	-194.87793	1522.74915	825.84888	-79.18472	1476.10059	944.26617	-292.76700	1445.84106	1016.83624	4.46543	1299.10681	853.31970	-358.73151	1276.54517	952.16809	-154.50647	1196.49377	1044.25427	-195.33093	1280.12244	788.73657	70.51218	975.79694	831.16766	-437.96921	1003.89923	900.92529	167.02997	797.97473	880.63641	-513.25714	781.10413	956.42023	-28.17025	920.76770	1034.91357	-217.31615	911.22467	1095.85461	-209.86816	899.30670	762.28442	54.11524	461.49280	854.04419	-242.58978	480.12201	1079.97131	-55.77224	197.80061	620.10065	-189.19611	102.22790	1104.51086	
497	4.960	-182.09395	1428.93799	1126.36450	-193.88402	1523.82275	834.38025	-78.43610	1477.99146	953.30884	-291.95990	1446.78943	1025.49292	6.74521	1300.47729	861.64526	-357.04675	1277.73315	961.26733	-153.21275	1198.11707	1053.00378	-193.16223	1281.43103	797.73102	70.47541	976.86639	839.55511	-436.41241	1005.12402	911.35815	166.49391	798.51404	887.92053	-511.09412	781.87122	967.65027	-27.21986	922.23926	1045.18970	-216.55325	912.91644	1106.06445	-208.95500	899.67670	770.92670	65.03651	463.25253	873.52332	-243.83910	481.21027	1087.38281	-46.88699	205.84297	635.81866	-190.16313	104.35162	1104.99951	
498	4.970	-181.35809	1430.09375	1134.94873	-192.82970	1525.22253	842.87109	-77.46367	1479.77856	962.43591	-290.52069	1447.67700	1033.29468	8.11088	1301.79041	869.98889	-355.35519	1279.19067	969.92920	-152.38823	1200.30933	1062.91272	-191.90125	1283.15125	806.00793	71.85226	979.06372	847.64215	-435.03128	1006.83728	921.98334	167.06711	799.90332	895.04016	-508.26312	783.37335	979.05011	-26.66945	923.38171	1053.77441	-215.95596	914.90991	1116.35339	-207.66910	900.26190	779.41284	74.37266	464.95401	893.19482	-245.16922	480.04413	1093.85583	-38.03772	213.60101	654.52704	-189.96410	104.66592	1104.47205	
